# xmcd
#
# Track frame offsets:
#	150
#	13850
#	31938
#	47759
#	67762
#	84744
#
# Disc length: 1319 seconds
# Revision: 0
# Processed by: cddbd v1.5.2PL0 Copyright (c) Steve Scherf et al.
# Submitted via: dBpowerAMP V12.0
#
DISCID=42052506
DTITLE=Steel Magnolia - Steel Magnolia EP
DYEAR=2010
DGENRE=Country
TTITLE0=Keep On Lovin' You
TTITLE1=Just By Being You (Halo And Wings)
TTITLE2=Ooh La La
TTITLE3=The Edge Of Goodbye
TTITLE4=I Need You (Live)
TTITLE5=Fast As You (Live)
EXTD=
EXTT0=
EXTT1=
EXTT2=
EXTT3=
EXTT4=
EXTT5=
PLAYORDER=
